<?xml version="1.0" encoding="UTF-8"?>
<!DOCTYPE svg PUBLIC "-//W3C//DTD SVG 1.1//EN" "http://www.w3.org/Graphics/SVG/1.1/DTD/svg11.dtd">
<!-- Creator: CorelDRAW 2018 -->
<svg xmlns="http://www.w3.org/2000/svg" xml:space="preserve" width="2480px" height="3508px" version="1.1" style="shape-rendering:geometricPrecision; text-rendering:geometricPrecision; image-rendering:optimizeQuality; fill-rule:evenodd; clip-rule:evenodd"
viewBox="0 0 2480 3507.43"
 xmlns:xlink="http://www.w3.org/1999/xlink">
 <defs>
  <style type="text/css">
   <![CDATA[
    .str3 {stroke:#68F276;stroke-width:11.81;stroke-miterlimit:22.9256}
    .str5 {stroke:fuchsia;stroke-width:23.62;stroke-miterlimit:22.9256}
    .str4 {stroke:fuchsia;stroke-width:8.86;stroke-miterlimit:22.9256}
    .str1 {stroke:fuchsia;stroke-width:59.05;stroke-miterlimit:22.9256}
    .str6 {stroke:#4412E6;stroke-width:17.71;stroke-miterlimit:22.9256}
    .str0 {stroke:blue;stroke-width:118.1;stroke-miterlimit:22.9256}
    .str2 {stroke:lime;stroke-width:118.1;stroke-miterlimit:22.9256;stroke-dasharray:118.100000 944.760000}
    .fil3 {fill:none;fill-rule:nonzero}
    .fil1 {fill:#33CC99}
    .fil0 {fill:#99FF99}
    .fil4 {fill:lime;fill-rule:nonzero}
    .fil5 {fill:#33CC99;fill-rule:nonzero}
    .fil2 {fill:fuchsia;fill-rule:nonzero}
   ]]>
  </style>
    <clipPath id="id0">
     <path d="M1636.41 701.37c581.2,218.94 874.86,867.56 655.93,1448.76 -218.93,581.19 -867.56,874.86 -1448.75,655.93 -581.2,-218.94 -874.86,-867.57 -655.93,-1448.76 218.93,-581.19 867.56,-874.86 1448.75,-655.93z"/>
    </clipPath>
 </defs>
 <g id="Layer_x0020_1">
  <metadata id="CorelCorpID_0Corel-Layer"/>
  <g id="_837723800">
   <circle class="fil0 str0" cx="1236.94" cy="1753.71" r="1164.44"/>
   <circle class="fil0 str1" transform="matrix(0.907863 0.135406 -0.135406 0.907863 1240 1753.71)" r="1268.59"/>
   <circle class="fil1 str2" transform="matrix(0.858981 0.323574 -0.323574 0.858981 1240 1753.71)" r="1268.59"/>
   <g style="clip-path:url(#id0)">
    <image x="115.17" y="628.88" width="2249.67" height="2249.67" xlink:href="Logo-GreenPixels-final_Images\Logo-GreenPixels-final_ImgID1.png"/>
   </g>
   <path class="fil2" d="M490.4 1653.4l-89.49 0c-7.39,0 -13.45,0.45 -18.16,1.34 -4.72,0.89 -8.42,2.87 -11.09,5.93 -2.68,3.06 -4.46,7.58 -5.36,13.57 -0.89,6 -1.33,14.09 -1.33,24.29l0 161.38 -59.28 0 0 -170.56c0,-26.26 6.95,-45.25 20.84,-56.98 13.9,-11.73 34.61,-17.59 62.14,-17.59l101.73 0 0 38.62z"/>
   <path id="1" class="fil2" d="M679.69 1614.78c16.06,0 28.81,5.8 38.24,17.4 9.43,11.6 14.15,30.02 14.15,55.26 0,25.24 -4.4,43.34 -13.19,54.3 -8.8,10.96 -21.86,16.44 -39.2,16.44l-88.34 0 0 21.8c0,9.18 0.45,16.57 1.34,22.18 0.89,5.61 2.49,9.88 4.78,12.81 2.3,2.93 5.42,4.85 9.37,5.74 3.95,0.89 8.86,1.34 14.72,1.34l89.49 0 0 37.86 -116.26 0c-11.21,0 -20.77,-1.41 -28.68,-4.21 -7.9,-2.81 -14.4,-7.33 -19.5,-13.58 -5.1,-6.24 -8.86,-14.46 -11.28,-24.66 -2.42,-10.2 -3.63,-22.82 -3.63,-37.86l0 -84.9c0,-14.78 1.21,-27.27 3.63,-37.47 2.42,-10.2 6.18,-18.42 11.28,-24.67 5.1,-6.24 11.6,-10.77 19.5,-13.57 7.91,-2.81 17.47,-4.21 28.68,-4.21l84.9 0zm-88.34 108.22l64.25 0c4.08,0 7.58,-0.38 10.51,-1.15 2.94,-0.76 5.29,-2.42 7.08,-4.97 1.78,-2.55 3.06,-6.18 3.82,-10.9 0.77,-4.71 1.15,-11.02 1.15,-18.92 0,-7.65 -0.32,-13.71 -0.96,-18.17 -0.63,-4.46 -1.78,-7.84 -3.44,-10.13 -1.66,-2.3 -3.95,-3.76 -6.88,-4.4 -2.93,-0.64 -6.69,-0.96 -11.28,-0.96l-40.92 0c-4.59,0 -8.41,0.64 -11.47,1.91 -3.06,1.28 -5.48,3.45 -7.27,6.51 -1.78,3.06 -2.99,7.2 -3.63,12.42 -0.64,5.23 -0.96,11.8 -0.96,19.7l0 29.06z"/>
   <path id="2" class="fil2" d="M913.34 1614.78c16.06,0 28.81,5.8 38.24,17.4 9.44,11.6 14.15,30.02 14.15,55.26 0,25.24 -4.39,43.34 -13.19,54.3 -8.79,10.96 -21.86,16.44 -39.2,16.44l-88.33 0 0 21.8c0,9.18 0.44,16.57 1.34,22.18 0.89,5.61 2.48,9.88 4.77,12.81 2.3,2.93 5.42,4.85 9.37,5.74 3.96,0.89 8.86,1.34 14.73,1.34l89.48 0 0 37.86 -116.25 0c-11.22,0 -20.78,-1.41 -28.68,-4.21 -7.91,-2.81 -14.41,-7.33 -19.51,-13.58 -5.09,-6.24 -8.85,-14.46 -11.28,-24.66 -2.42,-10.2 -3.63,-22.82 -3.63,-37.86l0 -84.9c0,-14.78 1.21,-27.27 3.63,-37.47 2.43,-10.2 6.19,-18.42 11.28,-24.67 5.1,-6.24 11.6,-10.77 19.51,-13.57 7.9,-2.81 17.46,-4.21 28.68,-4.21l84.89 0zm-88.33 108.22l64.24 0c4.08,0 7.59,-0.38 10.52,-1.15 2.93,-0.76 5.29,-2.42 7.07,-4.97 1.79,-2.55 3.06,-6.18 3.83,-10.9 0.76,-4.71 1.14,-11.02 1.14,-18.92 0,-7.65 -0.31,-13.71 -0.95,-18.17 -0.64,-4.46 -1.79,-7.84 -3.44,-10.13 -1.66,-2.3 -3.96,-3.76 -6.89,-4.4 -2.93,-0.64 -6.69,-0.96 -11.28,-0.96l-40.92 0c-4.59,0 -8.41,0.64 -11.47,1.91 -3.06,1.28 -5.48,3.45 -7.26,6.51 -1.79,3.06 -3,7.2 -3.64,12.42 -0.63,5.23 -0.95,11.8 -0.95,19.7l0 29.06z"/>
   <path id="3" class="fil2" d="M1135.52 1614.78c11.48,0 21.23,1.15 29.26,3.44 8.03,2.3 14.53,6.31 19.5,12.05 4.97,5.73 8.61,13.51 10.9,23.32 2.3,9.82 3.44,22.12 3.44,36.91l0 169.41 -58.51 0 0 -165.21c0,-8.15 -0.38,-14.91 -1.14,-20.26 -0.77,-5.36 -2.11,-9.56 -4.02,-12.62 -1.91,-3.06 -4.33,-5.23 -7.26,-6.51 -2.94,-1.27 -6.44,-1.91 -10.52,-1.91l-58.89 0 0 206.51 -59.28 0 0 -245.13 136.52 0z"/>
   <path class="fil2" d="M265.38 1480.12l0 56.48 -104.02 0c-4.08,0 -7.78,1.86 -11.09,5.59 -3.32,3.73 -6.18,8.67 -8.61,14.82 -2.42,6.15 -4.33,13.33 -5.73,21.53 -1.4,8.2 -2.1,16.77 -2.1,25.72l0 205.22c0,8.57 0.63,16.87 1.91,24.88 1.27,8.02 3.12,15.2 5.54,21.53 2.42,6.34 5.36,11.37 8.8,15.1 3.44,3.73 7.2,5.59 11.28,5.59l53.92 0 0 -143.71 -51.24 0 0 -55.92 105.92 0 0 254.99 -133.46 0c-8.92,0 -17.01,-3.17 -24.28,-9.51 -7.27,-6.33 -13.45,-15 -18.55,-26 -5.1,-10.99 -9.05,-23.95 -11.85,-38.86 -2.81,-14.91 -4.21,-30.94 -4.21,-48.09l0 -205.22c0,-17.52 1.47,-33.83 4.4,-48.93 2.93,-15.1 6.95,-28.24 12.04,-39.42 5.1,-11.18 11.29,-19.94 18.55,-26.28 7.27,-6.34 15.23,-9.51 23.9,-9.51l128.88 0z"/>
   <path id="1" class="fil3 str3" d="M265.38 1480.12l0 56.48 -104.02 0c-4.08,0 -7.78,1.86 -11.09,5.59 -3.32,3.73 -6.18,8.67 -8.61,14.82 -2.42,6.15 -4.33,13.33 -5.73,21.53 -1.4,8.2 -2.1,16.77 -2.1,25.72l0 205.22c0,8.57 0.63,16.87 1.91,24.88 1.27,8.02 3.12,15.2 5.54,21.53 2.42,6.34 5.36,11.37 8.8,15.1 3.44,3.73 7.2,5.59 11.28,5.59l53.92 0 0 -143.71 -51.24 0 0 -55.92 105.92 0 0 254.99 -133.46 0c-8.92,0 -17.01,-3.17 -24.28,-9.51 -7.27,-6.33 -13.45,-15 -18.55,-26 -5.1,-10.99 -9.05,-23.95 -11.85,-38.86 -2.81,-14.91 -4.21,-30.94 -4.21,-48.09l0 -205.22c0,-17.52 1.47,-33.83 4.4,-48.93 2.93,-15.1 6.95,-28.24 12.04,-39.42 5.1,-11.18 11.29,-19.94 18.55,-26.28 7.27,-6.34 15.23,-9.51 23.9,-9.51l128.88 0z"/>
   <path class="fil4" d="M1519.07 1143.99l0 47.42 -69.98 0 0 -47.42 69.98 0zm-5.36 78.01l0 207.27 66.54 0 0 37.86 -193.5 0 0 -37.86 67.69 0 0 -168.64 -67.69 0 0 -38.63 126.96 0z"/>
   <polygon id="1" class="fil4" points="1668.59,1222 1717.92,1305.75 1769.93,1222 1826.14,1222 1746.6,1341.32 1825.76,1467.13 1763.43,1467.13 1716.39,1382.24 1669.74,1467.13 1609.32,1467.13 1686.56,1342.85 1608.93,1222 "/>
   <path id="2" class="fil4" d="M1998.99 1222c16.07,0 28.81,5.8 38.24,17.4 9.44,11.6 14.15,30.02 14.15,55.26 0,25.24 -4.39,43.34 -13.19,54.31 -8.79,10.96 -21.86,16.44 -39.2,16.44l-88.33 0 0 21.8c0,9.17 0.44,16.57 1.34,22.18 0.89,5.6 2.48,9.88 4.78,12.81 2.29,2.93 5.41,4.84 9.37,5.73 3.95,0.89 8.85,1.34 14.72,1.34l89.48 0 0 37.86 -116.25 0c-11.22,0 -20.78,-1.4 -28.68,-4.21 -7.91,-2.8 -14.41,-7.33 -19.5,-13.57 -5.1,-6.25 -8.86,-14.47 -11.29,-24.67 -2.42,-10.2 -3.63,-22.82 -3.63,-37.86l0 -84.89c0,-14.79 1.21,-27.28 3.63,-37.48 2.43,-10.2 6.19,-18.42 11.29,-24.66 5.09,-6.25 11.59,-10.77 19.5,-13.58 7.9,-2.8 17.46,-4.21 28.68,-4.21l84.89 0zm-88.33 108.23l64.24 0c4.08,0 7.59,-0.39 10.52,-1.15 2.93,-0.76 5.29,-2.42 7.07,-4.97 1.79,-2.55 3.06,-6.18 3.83,-10.9 0.76,-4.72 1.14,-11.03 1.14,-18.93 0,-7.65 -0.31,-13.7 -0.95,-18.16 -0.64,-4.47 -1.79,-7.84 -3.44,-10.14 -1.66,-2.29 -3.96,-3.76 -6.89,-4.4 -2.93,-0.63 -6.69,-0.95 -11.28,-0.95l-40.92 0c-4.58,0 -8.41,0.64 -11.47,1.91 -3.06,1.28 -5.48,3.44 -7.26,6.5 -1.79,3.06 -3,7.2 -3.64,12.43 -0.63,5.23 -0.95,11.79 -0.95,19.69l0 29.07z"/>
   <polygon id="3" class="fil4" points="2213.53,1143.99 2213.53,1429.27 2281.6,1429.27 2281.6,1467.13 2087.71,1467.13 2087.71,1429.27 2154.25,1429.27 2154.25,1182.62 2087.71,1182.62 2087.71,1143.99 "/>
   <path id="4" class="fil3 str4" d="M1519.07 1143.99l0 47.42 -69.98 0 0 -47.42 69.98 0zm-5.36 78.01l0 207.27 66.54 0 0 37.86 -193.5 0 0 -37.86 67.69 0 0 -168.64 -67.69 0 0 -38.63 126.96 0z"/>
   <polygon id="5" class="fil3 str4" points="1668.59,1222 1717.92,1305.75 1769.93,1222 1826.14,1222 1746.6,1341.32 1825.76,1467.13 1763.43,1467.13 1716.39,1382.24 1669.74,1467.13 1609.32,1467.13 1686.56,1342.85 1608.93,1222 "/>
   <path id="6" class="fil3 str4" d="M1998.99 1222c16.07,0 28.81,5.8 38.24,17.4 9.44,11.6 14.15,30.02 14.15,55.26 0,25.24 -4.39,43.34 -13.19,54.31 -8.79,10.96 -21.86,16.44 -39.2,16.44l-88.33 0 0 21.8c0,9.17 0.44,16.57 1.34,22.18 0.89,5.6 2.48,9.88 4.78,12.81 2.29,2.93 5.41,4.84 9.37,5.73 3.95,0.89 8.85,1.34 14.72,1.34l89.48 0 0 37.86 -116.25 0c-11.22,0 -20.78,-1.4 -28.68,-4.21 -7.91,-2.8 -14.41,-7.33 -19.5,-13.57 -5.1,-6.25 -8.86,-14.47 -11.29,-24.67 -2.42,-10.2 -3.63,-22.82 -3.63,-37.86l0 -84.89c0,-14.79 1.21,-27.28 3.63,-37.48 2.43,-10.2 6.19,-18.42 11.29,-24.66 5.09,-6.25 11.59,-10.77 19.5,-13.58 7.9,-2.8 17.46,-4.21 28.68,-4.21l84.89 0zm-88.33 108.23l64.24 0c4.08,0 7.59,-0.39 10.52,-1.15 2.93,-0.76 5.29,-2.42 7.07,-4.97 1.79,-2.55 3.06,-6.18 3.83,-10.9 0.76,-4.72 1.14,-11.03 1.14,-18.93 0,-7.65 -0.31,-13.7 -0.95,-18.16 -0.64,-4.47 -1.79,-7.84 -3.44,-10.14 -1.66,-2.29 -3.96,-3.76 -6.89,-4.4 -2.93,-0.63 -6.69,-0.95 -11.28,-0.95l-40.92 0c-4.58,0 -8.41,0.64 -11.47,1.91 -3.06,1.28 -5.48,3.44 -7.26,6.5 -1.79,3.06 -3,7.2 -3.64,12.43 -0.63,5.23 -0.95,11.79 -0.95,19.69l0 29.07z"/>
   <polygon id="7" class="fil3 str4" points="2213.53,1143.99 2213.53,1429.27 2281.6,1429.27 2281.6,1467.13 2087.71,1467.13 2087.71,1429.27 2154.25,1429.27 2154.25,1182.62 2087.71,1182.62 2087.71,1143.99 "/>
   <path class="fil4" d="M1262.92 1144.28c8.67,0 16.64,4.2 23.9,12.61 7.27,8.41 13.45,19.69 18.55,33.84 5.1,14.15 9.11,30.76 12.04,49.83 2.94,19.08 4.4,39.07 4.4,59.99 0,21.74 -1.4,41.84 -4.2,60.29 -2.81,18.46 -6.76,34.46 -11.86,47.99 -5.1,13.54 -11.28,24.1 -18.54,31.69 -7.27,7.59 -15.37,11.38 -24.29,11.38l-79.92 0 0 189.5 -59.28 0 0 -497.12 139.2 0zm-79.92 244.86l54.68 0c18.36,0 27.54,-29.94 27.54,-89.82 0,-61.94 -9.18,-92.9 -27.54,-92.9l-54.68 0 0 182.72z"/>
   <path id="1" class="fil3 str5" d="M1262.92 1144.28c8.67,0 16.64,4.2 23.9,12.61 7.27,8.41 13.45,19.69 18.55,33.84 5.1,14.15 9.11,30.76 12.04,49.83 2.94,19.08 4.4,39.07 4.4,59.99 0,21.74 -1.4,41.84 -4.2,60.29 -2.81,18.46 -6.76,34.46 -11.86,47.99 -5.1,13.54 -11.28,24.1 -18.54,31.69 -7.27,7.59 -15.37,11.38 -24.29,11.38l-79.92 0 0 189.5 -59.28 0 0 -497.12 139.2 0zm-79.92 244.86l54.68 0c18.36,0 27.54,-29.94 27.54,-89.82 0,-61.94 -9.18,-92.9 -27.54,-92.9l-54.68 0 0 182.72z"/>
   <path class="fil5" d="M2279.55 1541.77l0 105.66 -275.12 0c-11.86,0 -22.32,3.14 -31.39,9.42 -9.06,6.27 -16.74,14.99 -23.01,26.15 -6.28,11.16 -10.99,23.88 -14.13,38.18 -3.13,14.3 -4.7,29.47 -4.7,45.51 0,36.26 6.62,65.55 19.87,87.87 13.25,22.32 31.04,33.48 53.36,33.48l141.22 0c28.59,0 53.7,5.93 75.32,17.78 21.62,11.86 39.75,28.25 54.4,49.17 14.64,20.92 25.63,45.85 32.95,74.8 7.32,28.94 10.99,60.5 10.99,94.67 0,36.96 -4.01,71.31 -12.03,103.04 -8.02,31.73 -19.36,59.46 -34,83.17 -14.65,23.71 -32.08,42.37 -52.31,55.96 -20.22,13.6 -42.54,20.4 -66.95,20.4l-349.4 0 0 -103.56 281.4 0c12.56,0 23.71,-3.66 33.48,-10.99 9.76,-7.32 18.13,-17.26 25.1,-29.81 6.98,-12.55 12.21,-27.37 15.7,-44.46 3.48,-17.09 5.23,-35.39 5.23,-54.92 0,-23.02 -1.92,-42.54 -5.76,-58.58 -3.83,-16.04 -10.46,-28.77 -19.87,-38.19 -9.42,-9.41 -21.8,-16.21 -37.14,-20.4 -15.34,-4.18 -34.87,-6.27 -58.58,-6.27l-91.01 0c-28.6,0 -54.05,-5.76 -76.37,-17.26 -22.32,-11.51 -40.97,-27.55 -55.97,-48.12 -14.99,-20.58 -26.33,-45.16 -34,-73.76 -7.67,-28.59 -11.5,-60.32 -11.5,-95.19 0,-33.48 3.83,-65.04 11.5,-94.68 7.67,-29.64 18.48,-55.44 32.43,-77.41 13.95,-21.97 30.86,-39.4 50.74,-52.3 19.88,-12.91 42.02,-19.36 66.43,-19.36l343.12 0z"/>
   <path id="1" class="fil3 str6" d="M2279.55 1541.77l0 105.66 -275.12 0c-11.86,0 -22.32,3.14 -31.39,9.42 -9.06,6.27 -16.74,14.99 -23.01,26.15 -6.28,11.16 -10.99,23.88 -14.13,38.18 -3.13,14.3 -4.7,29.47 -4.7,45.51 0,36.26 6.62,65.55 19.87,87.87 13.25,22.32 31.04,33.48 53.36,33.48l141.22 0c28.59,0 53.7,5.93 75.32,17.78 21.62,11.86 39.75,28.25 54.4,49.17 14.64,20.92 25.63,45.85 32.95,74.8 7.32,28.94 10.99,60.5 10.99,94.67 0,36.96 -4.01,71.31 -12.03,103.04 -8.02,31.73 -19.36,59.46 -34,83.17 -14.65,23.71 -32.08,42.37 -52.31,55.96 -20.22,13.6 -42.54,20.4 -66.95,20.4l-349.4 0 0 -103.56 281.4 0c12.56,0 23.71,-3.66 33.48,-10.99 9.76,-7.32 18.13,-17.26 25.1,-29.81 6.98,-12.55 12.21,-27.37 15.7,-44.46 3.48,-17.09 5.23,-35.39 5.23,-54.92 0,-23.02 -1.92,-42.54 -5.76,-58.58 -3.83,-16.04 -10.46,-28.77 -19.87,-38.19 -9.42,-9.41 -21.8,-16.21 -37.14,-20.4 -15.34,-4.18 -34.87,-6.27 -58.58,-6.27l-91.01 0c-28.6,0 -54.05,-5.76 -76.37,-17.26 -22.32,-11.51 -40.97,-27.55 -55.97,-48.12 -14.99,-20.58 -26.33,-45.16 -34,-73.76 -7.67,-28.59 -11.5,-60.32 -11.5,-95.19 0,-33.48 3.83,-65.04 11.5,-94.68 7.67,-29.64 18.48,-55.44 32.43,-77.41 13.95,-21.97 30.86,-39.4 50.74,-52.3 19.88,-12.91 42.02,-19.36 66.43,-19.36l343.12 0z"/>
  </g>
 </g>
</svg>
